#!OML:ASF I:\Random Stuff\random\construction\7_22_03\Session 2\subj1.ASF
:FULLY-SPECIFIED
:DEGREES
633
root -13.0361 17.7364 -3.46576 -173.645 -58.4215 -175.316
lowerback 1.6785 0.802621 2.74351
upperback -1.55348 1.15261 1.3589
thorax -2.50993 0.526463 -0.185259
lowerneck -24.4938 3.90281 2.06782
upperneck 43.7718 2.20878 0.69615
head 22.8535 0.48167 0.239115
rclavicle 4.74101e-014 -1.39149e-014
rhumerus -26.9261 17.1594 -68.7056
rradius 85.9931
rwrist 0.412934
rhand -29.3484 6.57113
rfingers 7.12502
rthumb -2.68818 -23.3917
lclavicle 4.74101e-014 -1.39149e-014
lhumerus -16.2744 -23.8513 76.0195
lradius 85.9539
lwrist 18.3241
lhand -30.5333 72.5006
lfingers 7.12502
lthumb -183.832 77.5542
rfemur -12.0512 6.01358 22.7415
rtibia 14.64
rfoot -5.9539 -25.7737
rtoes -10.7383
lfemur -16.8036 -13.2424 -11.2307
ltibia 22.9171
lfoot -14.1286 12.223
ltoes -36.83
634
root -13.0327 17.7366 -3.46883 -173.731 -58.4402 -175.256
lowerback 1.67903 0.812359 2.78579
upperback -1.55401 1.16669 1.38595
thorax -2.51024 0.53264 -0.181637
lowerneck -24.431 3.89047 2.06953
upperneck 43.7605 2.20227 0.66817
head 22.8202 0.47575 0.220605
rclavicle -7.25564e-015 9.54166e-015
rhumerus -27.1279 16.7145 -68.6447
rradius 86.8561
rwrist 0.0541639
rhand -29.064 6.61644
rfingers 7.12502
rthumb -2.41352 -23.3497
lclavicle -7.25564e-015 9.54166e-015
lhumerus -16.2096 -23.625 75.9169
lradius 86.2344
lwrist 18.8089
lhand -30.6 72.4873
lfingers 7.12502
lthumb -183.897 77.5686
rfemur -12.0303 5.83527 22.8057
rtibia 14.6713
rfoot -5.98645 -25.6222
rtoes -10.9203
lfemur -16.7777 -13.2039 -11.1952
ltibia 22.9193
lfoot -14.1089 12.1815
ltoes -36.9507
635
root -13.0302 17.7361 -3.47024 -173.804 -58.4697 -175.253
lowerback 1.71164 0.802952 2.80214
upperback -1.53656 1.15568 1.38882
thorax -2.51067 0.527062 -0.187796
lowerneck -24.3716 3.85887 2.0196
upperneck 43.7222 2.13084 0.76784
head 22.7588 0.456432 0.265338
rclavicle 7.09164e-014 1.19271e-015
rhumerus -27.2938 16.2953 -68.6099
rradius 87.6995
rwrist 0.0821819
rhand -28.9542 6.75228
rfingers 7.12502
rthumb -2.30747 -23.215
lclavicle 7.09164e-014 1.19271e-015
lhumerus -16.1741 -23.372 75.7978
lradius 86.5835
lwrist 18.8567
lhand -30.4286 72.6082
lfingers 7.12502
lthumb -183.731 77.4448
rfemur -11.974 5.62684 22.8352
rtibia 14.7026
rfoot -6.02616 -25.4421
rtoes -10.9158
lfemur -16.7103 -13.2407 -11.2056
ltibia 22.9204
lfoot -14.1251 12.2134
ltoes -36.7299
636
root -13.0288 17.7348 -3.4705 -173.782 -58.491 -175.341
lowerback 1.67742 0.795336 2.77797
upperback -1.49113 1.14264 1.36143
thorax -2.44479 0.522288 -0.201109
lowerneck -24.2965 3.86379 2.01381
upperneck 43.7003 2.08035 0.890241
head 22.7077 0.454795 0.319103
rclavicle 1.14798e-014 5.56597e-015
rhumerus -27.3467 15.9322 -68.5428
rradius 88.5043
rwrist 0.184752
rhand -29.057 6.79179
rfingers 7.12502
rthumb -2.40675 -23.1744
lclavicle 1.14798e-014 5.56597e-015
lhumerus -16.0992 -23.1692 75.6652
lradius 87.045
lwrist 19.1021
lhand -30.5615 72.7468
lfingers 7.12502
lthumb -183.86 77.3084
rfemur -11.9475 5.43935 22.8076
rtibia 14.7442
rfoot -5.9398 -25.2858
rtoes -11.4129
lfemur -16.6545 -13.3183 -11.2718
ltibia 22.9163
lfoot -14.2092 12.3011
ltoes -36.2983
637
root -13.0277 17.7356 -3.47002 -173.755 -58.5247 -175.401
lowerback 1.58055 0.791853 2.7525
upperback -1.45074 1.13258 1.34359
thorax -2.349 0.519217 -0.203089
lowerneck -23.8128 3.94961 2.05962
upperneck 43.8348 2.17542 0.959549
head 22.1627 0.508192 0.373758
rclavicle -4.92489e-014 -1.98785e-015
rhumerus -27.3406 15.4352 -68.4441
rradius 89.375
rwrist 0.0623706
rhand -28.9961 6.82804
rfingers 7.12502
rthumb -2.34796 -23.1388
lclavicle -4.92489e-014 -1.98785e-015
lhumerus -16.008 -22.9878 75.5194
lradius 87.5939
lwrist 19.5288
lhand -30.6927 72.9638
lfingers 7.12502
lthumb -183.986 77.0938
rfemur -11.9683 5.295 22.7885
rtibia 14.8227
rfoot -5.81366 -25.1777
rtoes -12.2389
lfemur -16.6314 -13.468 -11.3025
ltibia 22.899
lfoot -14.2451 12.4164
ltoes -35.9814
638
root -13.0251 17.7363 -3.46782 -173.847 -58.5637 -175.429
lowerback 1.60896 0.770976 2.70488
upperback -1.41916 1.10438 1.35299
thorax -2.33417 0.506618 -0.166062
lowerneck -24.4769 3.82964 2.14104
upperneck 43.824 1.90737 0.930607
head 22.8896 0.415245 0.273547
rclavicle 1.44119e-015 7.15625e-015
rhumerus -27.3481 14.9945 -68.2909
rradius 90.3486
rwrist -0.415366
rhand -28.6854 6.79942
rfingers 7.12502
rthumb -2.04788 -23.1705
lclavicle 1.44119e-015 7.15625e-015
lhumerus -15.9354 -22.784 75.3697
lradius 88.1277
lwrist 20.1332
lhand -29.8896 72.5711
lfingers 7.12502
lthumb -183.211 77.4733
rfemur -11.8829 5.20431 22.7847
rtibia 14.8992
rfoot -5.71336 -25.0946
rtoes -12.8592
lfemur -16.516 -13.5522 -11.3382
ltibia 22.8813
lfoot -14.2569 12.4124
ltoes -35.6736
639
root -13.0238 17.7367 -3.46317 -173.923 -58.599 -175.449
lowerback 1.62874 0.730721 2.67694
upperback -1.40487 1.05071 1.36185
thorax -2.33242 0.480584 -0.139668
lowerneck -24.2396 3.89345 2.02875
upperneck 43.8274 1.98799 1.07903
head 22.7937 0.440163 0.392398
rclavicle 1.33186e-014 8.74653e-015
rhumerus -27.323 14.676 -68.0952
rradius 91.334
rwrist -1.06829
rhand -28.333 6.53958
rfingers 7.12502
rthumb -1.70756 -23.4333
lclavicle 1.33186e-014 8.74653e-015
lhumerus -15.8148 -22.6178 75.2083
lradius 88.5771
lwrist 21.0808
lhand -29.19 72.0746
lfingers 7.12502
lthumb -182.535 77.9608
rfemur -11.8192 5.04043 22.78
rtibia 14.9545
rfoot -5.55941 -24.8977
rtoes -13.3559
lfemur -16.4316 -13.3352 -11.4054
ltibia 22.8692
lfoot -14.157 12.188
ltoes -36.1029
640
root -13.0244 17.7394 -3.45733 -173.908 -58.66 -175.437
lowerback 1.50879 0.693335 2.6855
upperback -1.41148 0.996204 1.36005
thorax -2.27273 0.45371 -0.142856
lowerneck -24.4019 3.8494 1.98615
upperneck 43.9469 1.85647 1.18448
head 22.9582 0.392919 0.425749
rclavicle -6.18717e-014 -8.74653e-015
rhumerus -27.294 14.2563 -67.8597
rradius 92.3761
rwrist -1.92242
rhand -27.918 6.30248
rfingers 7.12502
rthumb -1.3067 -23.6733
lclavicle -6.18717e-014 -8.74653e-015
lhumerus -15.5885 -22.3912 74.9858
lradius 88.936
lwrist 21.5789
lhand -29.8257 73.0229
lfingers 7.12502
lthumb -183.149 77.0206
rfemur -11.904 4.74222 22.7856
rtibia 15.0127
rfoot -5.39752 -24.6148
rtoes -13.5547
lfemur -16.4885 -13.1322 -11.4248
ltibia 22.8586
lfoot -14.0846 11.9621
ltoes -36.1228
641
root -13.025 17.743 -3.45006 -173.927 -58.7014 -175.439
lowerback 1.42931 0.695095 2.67451
upperback -1.42264 0.995207 1.33163
thorax -2.23917 0.45358 -0.164868
lowerneck -24.2947 3.88763 1.96451
upperneck 44.042 1.87071 1.25246
head 22.9993 0.395231 0.467763
rclavicle -9.69075e-015 -1.41137e-014
rhumerus -27.3748 13.6857 -67.581
rradius 93.5043
rwrist -2.94221
rhand -27.5013 6.16664
rfingers 7.12502
rthumb -0.904215 -23.8112
lclavicle -9.69075e-015 -1.41137e-014
lhumerus -15.3746 -22.2941 74.8044
lradius 89.4087
lwrist 22.0022
lhand -31.3542 74.139
lfingers 7.12502
lthumb -184.625 75.9315
rfemur -11.9419 4.47261 22.767
rtibia 15.0566
rfoot -5.30366 -24.3743
rtoes -13.6816
lfemur -16.492 -13.1091 -11.4533
ltibia 22.8605
lfoot -14.2693 11.851
ltoes -34.7697
642
root -13.0256 17.745 -3.44062 -173.97 -58.7188 -175.511
lowerback 1.4565 0.718093 2.62918
upperback -1.46175 1.02659 1.26248
thorax -2.29347 0.469055 -0.212121
lowerneck -24.3905 3.65905 1.817
upperneck 44.0671 1.42704 1.5052
head 23.0518 0.241277 0.519381
rclavicle -1.93318e-014 -1.94809e-014
rhumerus -27.5573 13.0894 -67.2937
rradius 94.6644
rwrist -4.09878
rhand -27.2685 6.2379
rfingers 7.12502
rthumb -0.679401 -23.7408
lclavicle -1.93318e-014 -1.94809e-014
lhumerus -15.27 -22.6055 74.7431
lradius 90.2843
lwrist 23.7554
lhand -33.3715 74.1157
lfingers 7.12502
lthumb -186.573 76.0063
rfemur -11.866 4.35635 22.6863
rtibia 15.072
rfoot -5.24735 -24.2095
rtoes -13.8453
lfemur -16.4097 -13.0242 -11.5621
ltibia 22.8844
lfoot -14.4178 11.7032
ltoes -33.8211
